<?xml version="1.0" encoding="utf-8"?>
<!-- Generator: Adobe Illustrator 24.1.0, SVG Export Plug-In . SVG Version: 6.00 Build 0)  -->
<svg version="1.1" id="Capa_1" xmlns="http://www.w3.org/2000/svg" xmlns:xlink="http://www.w3.org/1999/xlink" x="0px" y="0px"
	 viewBox="0 0 434 405" style="enable-background:new 0 0 434 405;" xml:space="preserve">
<style type="text/css">
	.st0{fill:#FFC248;}
	.st1{fill:#FFFFFF;}
	.st2{fill:#F4224B;}
	.st3{fill:#4D4D4D;}
</style>
<g>
	<path class="st0" d="M186.3,385.2c58.4,8.7,108.8-1.5,151.2-30.5c57.7-39.5,85.3-95.8,82.8-168.9c-1.5-31.4-11.6-60.7-30.2-87.9
		C357.6,50.4,309,21.3,244.3,10.6C179.7,0,124.4,10.3,78.6,41.7c-27.2,18.6-47.2,44.1-59.9,76.5c-12.8,32.5-13.1,68.3-1.3,107.5
		c11.3,34.7,22.1,59.7,32.6,75C82.6,348.3,128,376.5,186.3,385.2z"/>
	<path class="st1" d="M241.3,281.1c-3.1-5-6-10.5-8.5-16.6c-2.6-6.1-5.6-13.6-9.1-22.6l-3.9-9.9c-4.8-12.4-8.7-22.1-11.7-29.1
		c-2.9-6.5-6.2-12.9-10.1-19.1c-0.3-0.4-0.5-0.9-0.8-1.4c-3.1-5-6-10.5-8.5-16.6c-2.6-6.1-5.6-13.6-9.1-22.6l-3.9-9.9
		c-4.8-12.4-8.7-22.1-11.7-29.1c-3.1-7-6.7-13.8-11-20.4c-1.3-2.1-2.2-3.5-2.8-4.2c-0.6-0.7-1.5-1.2-2.5-1.5
		c-0.6-0.2-1.5-0.3-2.5-0.4v39.8c4.9,0.9,8.7,5.2,8.7,10.4c0,5.8-4.7,10.6-10.6,10.6s-10.6-4.7-10.6-10.6c0-5.2,3.8-9.5,8.7-10.4
		V77.6c-1.7,0.2-3.3,0.7-4.7,1.5c-1.8,1.1-3,2.3-3.8,3.8c-5.6,10.3-10.2,19.1-13.6,26.7s-7.2,16.5-11.3,27l-7.5,18.4
		c-2.7,5.7-4.2,11.1-6.8,14.9c-3.8,5.7-11.3,7.4-21.3,8.6c-15.1,1.8-26.1,9.4-30.3,20.8c-3.7,10.2-1.3,21.9,6.3,30
		c7.6,8.2,19.1,11.1,30.6,7.8c5.5-1.6,10.3-1.3,12.2,0.8c1.7,1.9,2.3,7.2-1.3,16c-6,14.4-4.4,29.4,4.3,40.3
		c6.4,8.1,15.9,12.7,25.5,12.7c25.7,0,32-20.2,34.3-26.7c1.6-4.5,3-7.9,4-10.1c1.1-2.3,2.4-4.4,3.8-6.4c3.8,0,8.8,0.3,15,0.8
		c1.6,0,4.1,0.1,7.4,0.3c3.3,0.2,6.4,0.3,9.1,0.3c5,0,11.4-0.6,19.3-1.7c1.5,2.3,2.8,4.9,4,8.1s1.9,5,2.2,5.6
		c1.3,3.6,2.4,6.7,3.6,9.3c1.1,2.6,2.5,4.9,4.1,7c1.9,2.5,4.6,3.8,8.3,3.8c2.9,0,5.2-0.8,7-2.4c1.8-1.6,2.7-3.8,2.7-6.9
		C244.3,286.7,243.3,284.4,241.3,281.1z M151.9,235.4l-7.5,18.4c-2.7,5.8-4.5,10.7-7.4,17.4c-2.3,5.5-7.4,15.9-16,15.9
		c-4.2,0-8.7-1.3-11.8-5.2c-4.2-5.3-4.8-12.8-1.5-20.5c8.4-20.3,2.3-31.7-2.2-36.6c-7.2-8.1-19-10.5-32.3-6.6
		c-5.6,1.6-8.9-0.3-10.8-2.3c-2.5-2.7-3.4-6.6-2.2-9.9c1.6-4.3,6.6-7.1,14.2-8c4.8-0.6,9.3-1.5,13.3-2.7c9-2.7,16-7.2,21.6-13.6
		c3.8-4.5,7-9.9,9.6-16.5c0-0.1,0.1-0.2,0.1-0.2c3.5,0.1,7.9,0.3,13.3,0.7c1.6,0,4.1,0.1,7.4,0.3s6.4,0.3,9.1,0.3
		c5,0,11.4-0.6,19.3-1.7c1.5,2.3,2.8,4.9,4,8.1c1.2,3.1,1.9,5,2.2,5.6c0.6,1.8,1.2,3.4,1.8,4.9c-5.3,9.6-9.5,18-12.8,25.1
		C159.9,215.9,156.1,224.9,151.9,235.4z M176.7,251.3h-7c-1.3,0-2.3-1.1-2.3-2.3v-7c0-1.3,1.1-2.3,2.3-2.3s2.3,1.1,2.3,2.3v4.7h4.7
		c1.3,0,2.3,1.1,2.3,2.3S178,251.3,176.7,251.3z M176.7,216.2H172v4.7c0,1.3-1.1,2.3-2.3,2.3s-2.3-1.1-2.3-2.3v-7
		c0-1.3,1.1-2.3,2.3-2.3h7c1.3,0,2.3,1.1,2.3,2.3C179.1,215.1,178,216.2,176.7,216.2z M187.2,238.5c-3.7,0-6.8-3-6.8-6.8
		c0-3.7,3-6.8,6.8-6.8c3.7,0,6.8,3,6.8,6.8C194,235.5,191,238.5,187.2,238.5z M207.1,248.9c0,1.3-1.1,2.3-2.3,2.3h-7
		c-1.3,0-2.3-1.1-2.3-2.3s1.1-2.3,2.3-2.3h4.7v-4.7c0-1.3,1.1-2.3,2.3-2.3s2.3,1.1,2.3,2.3L207.1,248.9L207.1,248.9z M207.1,220.9
		c0,1.3-1.1,2.3-2.3,2.3s-2.3-1.1-2.3-2.3v-4.7h-4.7c-1.3,0-2.3-1.1-2.3-2.3s1.1-2.3,2.3-2.3h7c1.3,0,2.3,1.1,2.3,2.3L207.1,220.9
		L207.1,220.9z"/>
	<g>
		<g>
			<path class="st2" d="M200.7,110.9c2.4-0.2,4.5-0.9,6.1-2.2s2.4-2.8,2.3-4.7c-0.2-2.5-1.4-4.3-3.6-5.4c-2.2-1.1-4.8-1.6-7.6-1.7
				c-2,0.1-3.1,0.9-3.5,2.6c-0.4,1.7-0.5,3.7-0.3,6.2c0.1,1.3,0.6,2.5,1.6,3.7C196.6,110.6,198.3,111.1,200.7,110.9z"/>
			<path class="st1" d="M212.2,153.7l-0.3-3.5l-1.8-21.9c-0.2-2.3-0.8-3.9-1.8-4.9c-1-1-2.7-1.4-5.1-1.2c-1.6,0.1-3.1,0.8-4.5,1.9
				c-1.4,1.2-2,2.5-1.9,4c0.2,2.9,0.8,8,1.7,15.3c1.1,8.3,1.9,15.7,2.4,22.4c0.2,2,0.6,4.3,1.3,6.9c0.4,0.9,1.4,1.5,3,2
				c1.6,0.5,3.2,0.7,4.8,0.5c0.9-0.1,1.9-0.6,2.9-1.5s1.6-1.8,1.6-2.6c-0.6-2.8-1-5.6-1.5-8.4C212.8,159.9,212.4,156.9,212.2,153.7z
				"/>
		</g>
		<path class="st1" d="M310.5,175.7c-2.1-0.9-3.2-3.3-3.4-7.2l-0.1-6.4c0.3-5.7,0.2-9.5-0.2-11.6c-0.8-4-2.6-7.5-5.4-10.7
			c-2.8-3.1-6-4.8-9.7-5c-3.1-0.2-6.1,0.3-9.1,1.5c-3,1.2-5.5,2.9-7.4,5.2c-1.3-2.1-2.4-3.6-3.2-4.7c-0.8-1-1.9-1.9-3.3-2.5
			c-1.3-0.6-3.1-1-5.3-1.1c-3.5-0.2-6.8,0.6-9.8,2.2c-3,1.7-5.4,3.9-7.2,6.8c-0.9-3.1-2.2-5.5-4.1-7.3c-1.8-1.8-4.1-2.8-6.8-2.9
			c-2-0.1-3.9,0.4-5.8,1.6s-2.9,2.7-3,4.6c0,0.6,0.3,1.4,1.1,2.3s1.6,1.4,2.5,1.5c0.4,0,0.9-0.1,1.7-0.4c0.8-0.3,1.3-0.4,1.6-0.4
			c1.2,0.1,2.1,0.9,2.9,2.6c0.8,1.7,1.1,3.4,1,5.2c-0.6,10.9-1.3,18.4-2.2,22.5c-0.4,1.4-0.6,2.8-0.7,4.2c-0.1,1.3,0.6,2.4,2.1,3.3
			s2.9,1.3,4.3,1.4c1.9,0.1,3.3-0.5,4-1.8c0.8-1.3,1.2-3,1.3-5.1c0.2-3,0.4-5.7,0.7-8c0.3-2.3,0.8-5.5,1.4-9.5
			c0.6-3.1,1.7-5.8,3.2-7.9c2.1-2.7,4.8-4,8.1-3.8c2.3,0.1,3.9,0.9,4.9,2.3s1.8,3.3,2.3,5.8c0.2,1.3,0.4,3.2,0.5,5.7
			s0.1,5.1-0.1,7.8l-0.3,4.8c-0.1,0.2-0.2,1.8-0.4,4.9c0,4.3,2,6.6,6.1,6.8c3.1,0.2,4.8-2,5-6.4c0-1,0.1-2.2,0-3.5s0-2.2,0-2.8
			c-0.1-2-0.1-4,0-5.9c0.2-3,0.5-5.7,1-8c0.5-2.3,1.3-4.4,2.5-6.4c0.7-1.2,1.8-2.2,3.2-3c1.4-0.8,2.8-1.1,4.2-1.1
			c3.7,0.2,6,1.9,7.1,5.1c1,3.2,1.4,7,1.2,11.3c-0.2,4.5-0.3,8-0.1,10.6c0.2,2.6,0.7,4.9,1.7,7c1.5,3,4.3,4.6,8.3,4.8
			c0.7,0,1.6-0.2,2.8-0.6c1.2-0.4,2.2-0.9,2.8-1.3c0.9-0.8,1.4-2,1.5-3.8C314.2,177.4,313,176.5,310.5,175.7z"/>
		<g>
			<path class="st3" d="M333.3,114.3c0.9-0.1,2.2-0.5,4-1.2c1.7-0.7,3.1-1.4,4.2-2.2c2-1.5,3.8-3.3,5.5-5.4s2.5-4.3,2.2-6.3
				c-0.1-1.1-0.7-1.9-1.7-2.5c-1-0.6-2.3-0.8-3.9-0.6s-2.9,0.7-3.9,1.6c-1,0.8-1.9,2.2-2.6,4.2c-0.5,1.4-0.9,2.6-1.5,3.5
				c-0.5,0.9-1.1,1.6-1.6,2.3c-0.6,0.7-1,1.1-1.3,1.5c-0.9,0.9-1.5,1.5-1.7,1.9c-0.3,0.4-0.4,0.8-0.3,1.3
				C330.8,113.8,331.7,114.5,333.3,114.3z"/>
			<path class="st1" d="M345.1,149.8c2.7-0.3,5.5-0.9,8.2-1.6s4.6-1.9,5.8-3.4c1.4-1.9,2.5-3.6,3.2-5.1s0.9-3.4,0.7-5.4
				c-0.4-3.8-2.3-7.5-5.6-11.2c-1.4-1.6-3.8-2.6-7-3.1s-6.4-0.5-9.4-0.2c-3,0.3-6.3,1.5-9.9,3.5s-6.2,4.3-7.6,7
				c-1.5,2.6-2.6,5.5-3.3,8.5c-0.7,3.1-0.9,6-0.6,8.9c0.4,3.4,1.3,6.6,2.7,9.4c1.4,2.9,3.2,5.3,5.2,7.2c2.5,2.1,5.5,3.6,9,4.5
				s7,1.1,10.6,0.7c1.8-0.2,4-0.8,6.8-1.7c2.8-0.9,5.2-2.1,7.3-3.6c2.1-1.5,3-3.2,2.8-5.1c-0.2-1.4-0.7-2.4-1.5-3.2s-2-1.1-3.5-0.9
				c-1.2,0.1-2.7,0.7-4.6,1.6c-2.3,1.2-4.8,1.9-7.5,2.3c-2.6,0.3-4.7,0.4-6.4,0.2s-3.4-0.9-5-2.2c-0.9-0.7-1.8-1.7-2.5-3.1
				c-0.8-1.4-1.3-2.8-1.7-4.3c2.4,0.3,4.9,0.4,7.5,0.5C341.2,150.1,343.3,150,345.1,149.8z M331.5,137.9c0.4-0.9,1.2-2.2,2.4-3.8
				c0.9-1.3,2.2-2.3,3.8-3.2c1.6-0.8,3.2-1.4,4.9-1.6c2.2-0.3,4.4,0.1,6.5,1.2c2.1,1.1,3.3,2.4,3.5,4s-0.6,3-2.2,4.2
				c-1.7,1.2-4.1,2-7.4,2.4c-6,0.7-10,0.9-12,0.5C330.9,140.1,331.1,138.9,331.5,137.9z"/>
		</g>
	</g>
	<g>
		<g>
			<path class="st2" d="M227.6,201.9v4.9h8.6v3.4h-8.6v6.8h-4.3v-18.6h14v3.4L227.6,201.9L227.6,201.9z"/>
			<path class="st2" d="M242.3,216.3c-1.2-0.6-2.1-1.5-2.8-2.6s-1-2.4-1-3.8c0-1.4,0.3-2.7,1-3.8c0.7-1.1,1.6-2,2.8-2.6
				c1.2-0.6,2.5-0.9,4-0.9s2.8,0.3,4,0.9c1.2,0.6,2.1,1.5,2.8,2.6s1,2.4,1,3.8c0,1.4-0.3,2.7-1,3.8s-1.6,2-2.8,2.6s-2.5,0.9-4,0.9
				S243.5,216.9,242.3,216.3z M248.9,212.8c0.7-0.7,1-1.7,1-2.9s-0.3-2.2-1-2.9c-0.7-0.7-1.6-1.1-2.6-1.1s-1.9,0.4-2.6,1.1
				c-0.7,0.7-1,1.7-1,2.9s0.3,2.2,1,2.9s1.6,1.1,2.6,1.1S248.3,213.5,248.9,212.8z"/>
			<path class="st2" d="M266.1,216.3c-0.4,0.3-0.9,0.5-1.5,0.7s-1.2,0.2-1.9,0.2c-1.7,0-3-0.4-3.9-1.3c-0.9-0.9-1.4-2.1-1.4-3.8
				v-5.9h-2.2v-3.2h2.2v-3.5h4.1v3.5h3.5v3.2h-3.5v5.8c0,0.6,0.2,1.1,0.5,1.4c0.3,0.3,0.8,0.5,1.3,0.5c0.6,0,1.2-0.2,1.7-0.5
				L266.1,216.3z"/>
			<path class="st2" d="M270.7,216.3c-1.2-0.6-2.1-1.5-2.8-2.6c-0.7-1.1-1-2.4-1-3.8c0-1.4,0.3-2.7,1-3.8c0.7-1.1,1.6-2,2.8-2.6
				c1.2-0.6,2.5-0.9,4-0.9s2.8,0.3,4,0.9c1.2,0.6,2.1,1.5,2.8,2.6s1,2.4,1,3.8c0,1.4-0.3,2.7-1,3.8s-1.6,2-2.8,2.6s-2.5,0.9-4,0.9
				S271.9,216.9,270.7,216.3z M277.4,212.8c0.7-0.7,1-1.7,1-2.9s-0.3-2.2-1-2.9s-1.5-1.1-2.6-1.1s-1.9,0.4-2.6,1.1
				c-0.7,0.7-1,1.7-1,2.9s0.3,2.2,1,2.9s1.6,1.1,2.6,1.1S276.7,213.5,277.4,212.8z"/>
			<path class="st2" d="M300,202.8v11.9c0,2.6-0.7,4.6-2,5.8c-1.4,1.3-3.4,1.9-6,1.9c-1.4,0-2.7-0.2-3.9-0.5s-2.3-0.8-3.1-1.5l1.6-3
				c0.6,0.5,1.4,0.9,2.3,1.2s1.8,0.4,2.8,0.4c1.4,0,2.5-0.3,3.2-1c0.7-0.6,1-1.6,1-2.9v-0.6c-1.1,1.2-2.6,1.8-4.5,1.8
				c-1.3,0-2.5-0.3-3.6-0.9s-2-1.4-2.6-2.4c-0.6-1-1-2.2-1-3.6s0.3-2.6,1-3.6c0.6-1,1.5-1.9,2.6-2.4s2.3-0.9,3.6-0.9
				c2.1,0,3.6,0.7,4.7,2v-1.8L300,202.8L300,202.8z M294.9,212c0.7-0.6,1-1.5,1-2.5s-0.4-1.9-1-2.5c-0.7-0.6-1.6-1-2.7-1
				s-2,0.3-2.7,1c-0.7,0.6-1.1,1.5-1.1,2.5s0.4,1.9,1.1,2.5c0.7,0.6,1.6,1,2.7,1S294.2,212.6,294.9,212z"/>
			<path class="st2" d="M309.8,203.1c0.8-0.4,1.8-0.5,2.9-0.5v3.8c-0.5,0-0.8-0.1-0.9-0.1c-1.2,0-2.1,0.3-2.8,1s-1,1.7-1,3v6.7h-4.1
				v-14.3h4v1.9C308.3,203.9,309,203.4,309.8,203.1z"/>
			<path class="st2" d="M326,204.1c1.2,1.1,1.8,2.6,1.8,4.8v8.1h-3.9v-1.8c-0.8,1.3-2.2,2-4.4,2c-1.1,0-2-0.2-2.9-0.6
				s-1.4-0.9-1.8-1.5c-0.4-0.6-0.6-1.4-0.6-2.2c0-1.3,0.5-2.4,1.5-3.1c1-0.8,2.5-1.1,4.6-1.1h3.3c0-0.9-0.3-1.6-0.8-2.1
				c-0.5-0.5-1.4-0.7-2.5-0.7c-0.8,0-1.5,0.1-2.2,0.4c-0.7,0.2-1.4,0.6-1.9,1l-1.5-2.9c0.8-0.6,1.7-1,2.8-1.3s2.2-0.4,3.4-0.4
				C323.1,202.6,324.8,203.1,326,204.1z M322.5,214c0.5-0.3,0.9-0.8,1.2-1.4v-1.5h-2.8c-1.7,0-2.5,0.6-2.5,1.7
				c0,0.5,0.2,0.9,0.6,1.3c0.4,0.3,1,0.5,1.7,0.5C321.3,214.4,321.9,214.3,322.5,214z"/>
			<path class="st2" d="M336,203.1h3.7v3.2h-3.5V217H332v-10.8h-2.2v-3.2h2.2v-0.6c0-1.6,0.5-2.9,1.4-3.9s2.3-1.4,4.1-1.4
				c0.6,0,1.2,0.1,1.8,0.2c0.6,0.1,1,0.3,1.4,0.6l-1.1,3c-0.5-0.3-1-0.5-1.7-0.5c-1.3,0-1.9,0.7-1.9,2.1L336,203.1L336,203.1z"/>
			<path class="st2" d="M347.1,197.1h4.5l-4.8,3.8h-3.2L347.1,197.1z M343.9,202.8h4.1V217h-4.1V202.8z"/>
			<path class="st2" d="M362.7,204.1c1.2,1.1,1.8,2.6,1.8,4.8v8.1h-3.9v-1.8c-0.8,1.3-2.2,2-4.4,2c-1.1,0-2-0.2-2.9-0.6
				s-1.4-0.9-1.8-1.5c-0.4-0.6-0.6-1.4-0.6-2.2c0-1.3,0.5-2.4,1.5-3.1c1-0.8,2.5-1.1,4.6-1.1h3.3c0-0.9-0.3-1.6-0.8-2.1
				c-0.5-0.5-1.4-0.7-2.5-0.7c-0.8,0-1.5,0.1-2.2,0.4c-0.7,0.2-1.4,0.6-1.9,1l-1.5-2.9c0.8-0.6,1.7-1,2.8-1.3s2.2-0.4,3.4-0.4
				C359.8,202.6,361.5,203.1,362.7,204.1z M359.2,214c0.5-0.3,0.9-0.8,1.2-1.4v-1.5h-2.8c-1.7,0-2.5,0.6-2.5,1.7
				c0,0.5,0.2,0.9,0.6,1.3c0.4,0.3,1,0.5,1.7,0.5C358,214.4,358.6,214.3,359.2,214z"/>
			<path class="st2" d="M262.5,241.7l-6.4,15.1c-0.6,1.6-1.5,2.8-2.4,3.5c-1,0.7-2.1,1-3.5,1c-0.7,0-1.5-0.1-2.2-0.3s-1.3-0.5-1.8-1
				l1.5-2.9c0.3,0.3,0.7,0.5,1.1,0.7s0.8,0.2,1.2,0.2c0.6,0,1-0.1,1.4-0.4s0.7-0.7,0.9-1.4l0.1-0.1l-6.2-14.4h4.3l4,9.7l4-9.7
				L262.5,241.7L262.5,241.7z"/>
			<path class="st2" d="M272,237.4h8.4c2,0,3.8,0.4,5.3,1.1c1.5,0.8,2.8,1.9,3.6,3.3c0.9,1.4,1.3,3,1.3,4.9s-0.4,3.5-1.3,4.9
				s-2.1,2.5-3.6,3.3c-1.5,0.8-3.3,1.1-5.3,1.1H272V237.4z M280.2,252.5c1.9,0,3.3-0.5,4.4-1.6s1.7-2.4,1.7-4.2s-0.5-3.2-1.7-4.2
				c-1.1-1-2.6-1.6-4.4-1.6h-3.9v11.5H280.2z"/>
			<path class="st2" d="M293.8,239.1c-0.5-0.4-0.7-1-0.7-1.6s0.2-1.2,0.7-1.6c0.5-0.4,1.1-0.7,1.9-0.7s1.4,0.2,1.9,0.6
				c0.5,0.4,0.7,0.9,0.7,1.6c0,0.7-0.2,1.3-0.7,1.7c-0.5,0.4-1.1,0.7-1.9,0.7S294.3,239.5,293.8,239.1z M293.6,241.7h4.1V256h-4.1
				V241.7z"/>
			<path class="st2" d="M302.9,255.8c-1.1-0.3-2-0.7-2.7-1.1l1.4-3c0.6,0.4,1.4,0.7,2.3,1c0.9,0.3,1.8,0.4,2.6,0.4
				c1.8,0,2.6-0.4,2.6-1.3c0-0.4-0.2-0.7-0.7-0.9c-0.5-0.2-1.2-0.3-2.2-0.4c-1.2-0.2-2.1-0.4-2.9-0.6s-1.4-0.6-2-1.2
				s-0.8-1.4-0.8-2.5c0-0.9,0.3-1.7,0.8-2.4s1.3-1.2,2.3-1.6s2.2-0.6,3.5-0.6c1,0,2,0.1,3,0.3s1.8,0.5,2.5,0.9l-1.4,2.9
				c-1.3-0.7-2.6-1.1-4.1-1.1c-0.9,0-1.5,0.1-2,0.4s-0.7,0.6-0.7,0.9c0,0.4,0.2,0.8,0.7,0.9s1.2,0.3,2.3,0.5
				c1.2,0.2,2.1,0.4,2.9,0.6s1.4,0.6,1.9,1.2s0.8,1.4,0.8,2.4c0,0.9-0.3,1.7-0.8,2.4s-1.3,1.2-2.3,1.6s-2.2,0.6-3.6,0.6
				C305.2,256.2,304,256,302.9,255.8z"/>
			<path class="st2" d="M329.5,250h-10.8c0.2,0.9,0.6,1.6,1.4,2.1c0.7,0.5,1.6,0.8,2.7,0.8c0.7,0,1.4-0.1,2-0.3s1.1-0.6,1.6-1.1
				l2.2,2.4c-1.3,1.5-3.3,2.3-5.9,2.3c-1.6,0-3-0.3-4.3-0.9s-2.2-1.5-2.9-2.6c-0.7-1.1-1-2.4-1-3.8c0-1.4,0.3-2.7,1-3.8
				s1.6-2,2.7-2.6s2.5-0.9,3.9-0.9c1.4,0,2.7,0.3,3.8,0.9c1.1,0.6,2,1.5,2.7,2.6s1,2.4,1,3.9C329.6,249,329.6,249.3,329.5,250z
				 M319.9,245.4c-0.6,0.5-1,1.3-1.2,2.2h7c-0.1-0.9-0.5-1.6-1.2-2.2c-0.6-0.5-1.4-0.8-2.3-0.8C321.3,244.6,320.5,244.9,319.9,245.4
				z"/>
			<path class="st2" d="M345.3,243.1c1.1,1.1,1.6,2.6,1.6,4.7v8.2h-4.1v-7.5c0-1.1-0.3-2-0.7-2.5c-0.5-0.6-1.2-0.8-2.1-0.8
				c-1,0-1.9,0.3-2.5,1s-0.9,1.6-0.9,2.9v7.1h-4.1v-14.3h4v1.7c0.5-0.6,1.2-1.1,2-1.4s1.7-0.5,2.7-0.5
				C342.8,241.5,344.2,242,345.3,243.1z M340.4,239.7c-0.4-0.2-0.8-0.4-1.2-0.8c-0.3-0.2-0.5-0.4-0.7-0.5c-0.2-0.1-0.4-0.2-0.5-0.2
				c-0.4,0-0.7,0.1-0.9,0.4c-0.2,0.3-0.4,0.6-0.4,1.1h-2.1c0-1.2,0.3-2.1,0.9-2.8c0.6-0.7,1.3-1.1,2.2-1.1c0.5,0,0.9,0.1,1.2,0.3
				s0.8,0.4,1.2,0.8c0.3,0.2,0.5,0.4,0.7,0.5c0.2,0.1,0.4,0.2,0.5,0.2c0.4,0,0.6-0.1,0.9-0.4c0.2-0.3,0.4-0.6,0.4-1.1h2.1
				c0,1.1-0.3,2.1-0.9,2.8c-0.6,0.7-1.3,1-2.2,1C341.2,240,340.8,239.9,340.4,239.7z"/>
			<path class="st2" d="M353.6,255.3c-1.2-0.6-2.1-1.5-2.8-2.6c-0.7-1.1-1-2.4-1-3.8s0.3-2.7,1-3.8c0.7-1.1,1.6-2,2.8-2.6
				c1.2-0.6,2.5-0.9,4-0.9s2.8,0.3,4,0.9c1.2,0.6,2.1,1.5,2.8,2.6s1,2.4,1,3.8s-0.3,2.7-1,3.8s-1.6,2-2.8,2.6s-2.5,0.9-4,0.9
				S354.8,255.9,353.6,255.3z M360.2,251.7c0.7-0.7,1-1.7,1-2.9s-0.3-2.2-1-2.9s-1.5-1.1-2.6-1.1s-1.9,0.4-2.6,1.1
				c-0.7,0.7-1,1.7-1,2.9s0.3,2.2,1,2.9s1.6,1.1,2.6,1.1S359.5,252.4,360.2,251.7z"/>
			<path class="st2" d="M279.8,285.4h3.9v7.5c-1,0.8-2.2,1.3-3.5,1.8s-2.7,0.6-4,0.6c-1.9,0-3.7-0.4-5.2-1.2s-2.7-2-3.6-3.4
				c-0.9-1.5-1.3-3.1-1.3-4.9s0.4-3.5,1.3-4.9c0.9-1.5,2.1-2.6,3.6-3.4c1.5-0.8,3.3-1.2,5.3-1.2c1.6,0,3.1,0.3,4.4,0.8
				c1.3,0.5,2.4,1.3,3.3,2.4l-2.8,2.5c-1.3-1.4-2.9-2.1-4.8-2.1c-1.2,0-2.2,0.3-3.1,0.7c-0.9,0.5-1.6,1.2-2.1,2.1
				c-0.5,0.9-0.8,1.9-0.8,3.1c0,1.1,0.3,2.2,0.8,3.1s1.2,1.6,2.1,2.1s2,0.8,3.1,0.8c1.2,0,2.4-0.3,3.3-0.8L279.8,285.4L279.8,285.4z
				"/>
			<path class="st2" d="M293.4,281c0.8-0.4,1.8-0.5,2.9-0.5v3.8c-0.5,0-0.8,0-0.9,0c-1.2,0-2.1,0.3-2.8,1s-1,1.7-1,3v6.7h-4.1v-14.3
				h4v1.9C291.9,281.9,292.5,281.4,293.4,281z"/>
			<path class="st2" d="M309.5,282.1c1.2,1,1.8,2.6,1.8,4.8v8.1h-3.9v-1.8c-0.8,1.3-2.2,2-4.4,2c-1.1,0-2-0.2-2.9-0.6
				s-1.4-0.9-1.8-1.5c-0.4-0.6-0.6-1.4-0.6-2.2c0-1.3,0.5-2.4,1.5-3.1s2.5-1.1,4.6-1.1h3.3c0-0.9-0.3-1.6-0.8-2.1
				c-0.5-0.5-1.4-0.7-2.5-0.7c-0.8,0-1.5,0.1-2.2,0.4c-0.7,0.2-1.4,0.6-1.9,1l-1.5-2.9c0.8-0.5,1.7-1,2.8-1.3s2.2-0.5,3.4-0.5
				C306.6,280.5,308.3,281,309.5,282.1z M306,291.9c0.5-0.3,0.9-0.8,1.2-1.4V289h-2.8c-1.7,0-2.5,0.6-2.5,1.7c0,0.5,0.2,1,0.6,1.3
				c0.4,0.3,1,0.5,1.7,0.5C304.8,292.4,305.4,292.2,306,291.9z M306,275h4.5l-4.8,3.8h-3.2L306,275z"/>
			<path class="st2" d="M319.5,281h3.7v3.2h-3.5V295h-4.1v-10.8h-2.2V281h2.2v-0.6c0-1.6,0.5-2.9,1.4-3.9s2.3-1.4,4.1-1.4
				c0.6,0,1.2,0.1,1.8,0.2c0.6,0.1,1,0.3,1.4,0.6l-1.1,3c-0.5-0.3-1-0.5-1.7-0.5c-1.3,0-1.9,0.7-1.9,2.1L319.5,281L319.5,281z
				 M327.6,278c-0.5-0.4-0.7-1-0.7-1.6s0.2-1.2,0.7-1.6s1.1-0.7,1.9-0.7s1.4,0.2,1.9,0.6c0.5,0.4,0.7,1,0.7,1.6
				c0,0.7-0.2,1.3-0.7,1.7c-0.5,0.5-1.1,0.7-1.9,0.7S328.1,278.5,327.6,278z M327.4,280.7h4.1V295h-4.1V280.7z"/>
			<path class="st2" d="M338.1,294.2c-1.2-0.6-2.2-1.5-2.8-2.6s-1-2.4-1-3.8s0.3-2.7,1-3.8c0.7-1.1,1.6-2,2.8-2.6
				c1.2-0.6,2.6-0.9,4.1-0.9c1.5,0,2.8,0.3,3.9,0.9c1.1,0.6,1.9,1.5,2.5,2.7l-3.2,1.7c-0.7-1.3-1.8-2-3.2-2c-1.1,0-2,0.4-2.7,1.1
				s-1.1,1.7-1.1,2.9s0.4,2.2,1.1,2.9c0.7,0.7,1.6,1.1,2.7,1.1c1.4,0,2.5-0.6,3.2-2l3.2,1.8c-0.5,1.1-1.3,2-2.5,2.6s-2.4,1-3.9,1
				C340.7,295.2,339.4,294.9,338.1,294.2z"/>
			<path class="st2" d="M353.6,294.2c-1.2-0.6-2.1-1.5-2.8-2.6c-0.7-1.1-1-2.4-1-3.8s0.3-2.7,1-3.8c0.7-1.1,1.6-2,2.8-2.6
				c1.2-0.6,2.5-0.9,4-0.9s2.8,0.3,4,0.9c1.2,0.6,2.1,1.5,2.8,2.6s1,2.4,1,3.8s-0.3,2.7-1,3.8c-0.7,1.1-1.6,2-2.8,2.6
				c-1.2,0.6-2.5,0.9-4,0.9S354.8,294.9,353.6,294.2z M360.2,290.7c0.7-0.7,1-1.7,1-2.9c0-1.2-0.3-2.2-1-2.9s-1.5-1.1-2.6-1.1
				s-1.9,0.4-2.6,1.1c-0.7,0.7-1,1.7-1,2.9c0,1.2,0.3,2.2,1,2.9s1.6,1.1,2.6,1.1S359.5,291.4,360.2,290.7z"/>
		</g>
	</g>
</g>
</svg>
